#!OML:ASF X:\für Bonn\!DataBase\2005_08_12_Daniel\c3d\Daniel.ASF
:FULLY-SPECIFIED
:DEGREES
32
root 14.2017 16.6607 15.5357 -176.013 -47.1404 167.243
lowerback 18.5981 -0.822181 -8.44589
upperback 4.03672 -3.54513 -3.88179
thorax -5.81084 -1.86722 1.45384
lowerneck -7.88442 1.70242 -4.5831
upperneck -1.34009 2.5474 -1.21306
head 0.853161 1.2082 0.464333
rclavicle -1.0466e-013 -4.17448e-014
rhumerus -55.5819 4.88847 -100.588
rradius 81.006
rwrist -3.06671
rhand -18.8723 26.3179
rfingers 7.12502
rthumb 7.42839 -3.5317
lclavicle -1.0466e-013 -4.17448e-014
lhumerus -56.9434 -1.36122 87.2679
lradius 114.433
lwrist 16.3654
lhand -12.4354 -10.9109
lfingers 7.12502
lthumb 13.6374 18.6224
rfemur -9.76062 -7.32717 7.61067
rtibia 94.9132
rfoot 1.40739 3.50697
rtoes 0.709974
lfemur -9.27544 -2.573 -34.3424
ltibia 46.1698
lfoot -29.6793 1.52553
ltoes -1.55402
33
root 13.9418 16.6896 15.2815 -175.869 -46.8868 167.567
lowerback 18.2977 -1.03836 -8.37938
upperback 3.87705 -3.75902 -3.77857
thorax -5.80103 -1.9573 1.56457
lowerneck -7.98671 1.85343 -4.44646
upperneck -1.18461 2.74941 -1.36492
head 0.919766 1.30275 0.403238
rclavicle 1.00187e-013 8.11041e-014
rhumerus -56.6535 4.62799 -100.296
rradius 81.9882
rwrist -4.13963
rhand -19.1294 26.4391
rfingers 7.12502
rthumb 7.18025 -3.41906
lclavicle 1.00187e-013 8.11041e-014
lhumerus -56.2828 -0.809405 87.1846
lradius 114.616
lwrist 16.141
lhand -12.4686 -10.7441
lfingers 7.12502
lthumb 13.6054 18.7914
rfemur -12.683 -7.53673 7.77723
rtibia 95.6948
rfoot 0.889803 3.53873
rtoes 0.160704
lfemur -7.6196 -2.76133 -34.2163
ltibia 45.1423
lfoot -30.2643 1.91533
ltoes -1.77209
34
root 13.6814 16.739 15.0253 -175.802 -46.6493 168.112
lowerback 17.9058 -1.2725 -8.06955
upperback 3.70046 -3.93502 -3.66154
thorax -5.77728 -2.03025 1.54137
lowerneck -8.09704 1.96564 -4.42314
upperneck -1.02345 2.9096 -1.39764
head 0.988116 1.37892 0.397356
rclavicle 4.87022e-015 9.42239e-014
rhumerus -57.8277 4.74417 -100.184
rradius 82.9245
rwrist -5.44506
rhand -19.5972 26.5538
rfingers 7.12502
rthumb 6.72862 -3.31932
lclavicle 4.87022e-015 9.42239e-014
lhumerus -55.7339 -0.409378 87.206
lradius 114.908
lwrist 16.002
lhand -12.7183 -10.7773
lfingers 7.12502
lthumb 13.3647 18.774
rfemur -15.6033 -7.65815 8.33229
rtibia 96.0076
rfoot 0.39229 3.37107
rtoes -0.734823
lfemur -5.96806 -2.98141 -33.906
ltibia 43.9318
lfoot -30.5445 2.16253
ltoes -1.73467
35
root 13.4209 16.8039 14.7664 -175.839 -46.4215 168.892
lowerback 17.4291 -1.53919 -7.57813
upperback 3.50248 -4.10577 -3.49979
thorax -5.74008 -2.10088 1.45833
lowerneck -8.24388 2.0791 -4.4716
upperneck -0.801681 3.08204 -1.35209
head 1.08025 1.46198 0.429811
rclavicle -1.55052e-014 2.10712e-014
rhumerus -59.1297 5.02786 -100.161
rradius 83.8325
rwrist -6.62221
rhand -20.0019 26.7126
rfingers 7.12502
rthumb 6.33795 -3.17261
lclavicle -1.55052e-014 2.10712e-014
lhumerus -55.1995 -0.00520189 87.3604
lradius 115.221
lwrist 15.8486
lhand -13.093 -10.9886
lfingers 7.12502
lthumb 13.0035 18.5861
rfemur -18.4712 -7.65289 9.26001
rtibia 95.8431
rfoot -0.164034 2.99991
rtoes -2.52018
lfemur -4.38309 -3.1786 -33.4223
ltibia 42.5806
lfoot -30.4122 2.41372
ltoes -1.79243
36
root 13.1595 16.8835 14.5033 -176.006 -46.2419 169.846
lowerback 16.9227 -1.82998 -6.93144
upperback 3.31816 -4.27921 -3.31168
thorax -5.68141 -2.17643 1.3133
lowerneck -8.40107 2.18818 -4.58607
upperneck -0.553264 3.25586 -1.2377
head 1.18101 1.54698 0.495931
rclavicle 8.94531e-015 4.37326e-015
rhumerus -60.3111 5.39657 -100.201
rradius 84.6632
rwrist -7.55091
rhand -20.2924 26.7133
rfingers 7.12502
rthumb 6.05757 -3.18014
lclavicle 8.94531e-015 4.37326e-015
lhumerus -54.6206 0.360235 87.6128
lradius 115.481
lwrist 15.6219
lhand -13.6186 -11.3451
lfingers 7.12502
lthumb 12.4968 18.2612
rfemur -21.1066 -7.53203 10.4626
rtibia 95.1414
rfoot -0.837335 2.46846
rtoes -4.78014
lfemur -2.80572 -3.41955 -32.8037
ltibia 41.1157
lfoot -29.8198 2.6982
ltoes -2.24889
37
root 12.8945 16.9788 14.2361 -176.238 -46.1034 170.866
lowerback 16.3769 -2.16162 -6.25147
upperback 3.1494 -4.4999 -3.07253
thorax -5.58123 -2.27743 1.20764
lowerneck -8.50359 2.32608 -4.85062
upperneck -0.337376 3.47661 -1.05432
head 1.25758 1.65766 0.609827
rclavicle 1.78906e-015 3.1408e-014
rhumerus -61.3746 6.14239 -100.283
rradius 85.5193
rwrist -8.31811
rhand -20.4443 26.4473
rfingers 7.12502
rthumb 5.91087 -3.45027
lclavicle 1.78906e-015 3.1408e-014
lhumerus -54.1338 0.729695 87.97
lradius 115.729
lwrist 15.3473
lhand -14.2981 -11.8958
lfingers 7.12502
lthumb 11.8416 17.7494
rfemur -23.4376 -7.2992 11.778
rtibia 93.9215
rfoot -1.49108 1.90152
rtoes -6.54923
lfemur -1.20766 -3.76567 -32.142
ltibia 39.5892
lfoot -28.8139 2.96952
ltoes -2.40633
38
root 12.6302 17.0942 13.9651 -176.558 -46.0148 171.938
lowerback 15.8444 -2.49307 -5.4519
upperback 2.99391 -4.71367 -2.84768
thorax -5.48733 -2.3788 1.01598
lowerneck -8.47542 2.43112 -5.28323
upperneck -0.164384 3.65926 -0.722621
head 1.29284 1.75473 0.79538
rclavicle -1.88845e-015 -2.70347e-014
rhumerus -62.4465 6.91522 -100.393
rradius 86.3796
rwrist -8.73266
rhand -20.514 26.1008
rfingers 7.12502
rthumb 5.84357 -3.79859
lclavicle -1.88845e-015 -2.70347e-014
lhumerus -53.8437 0.787 88.2946
lradius 116.144
lwrist 15.1139
lhand -15.0374 -12.4262
lfingers 7.12502
lthumb 11.1287 17.2587
rfemur -25.4105 -6.95674 13.1818
rtibia 92.1524
rfoot -1.98364 1.31236
rtoes -7.63158
lfemur 0.443716 -4.44094 -31.514
ltibia 37.9847
lfoot -27.3958 3.42745
ltoes -2.51068
39
root 12.3659 17.2248 13.6915 -176.782 -45.9927 172.935
lowerback 15.2417 -2.83876 -4.67694
upperback 2.82638 -4.95731 -2.62661
thorax -5.36813 -2.49578 0.832334
lowerneck -8.35813 2.5452 -5.7172
upperneck -0.03546 3.84665 -0.394071
head 1.29719 1.8553 0.978828
rclavicle 1.88845e-014 -2.62396e-014
rhumerus -63.4499 7.64273 -100.45
rradius 87.0797
rwrist -8.79433
rhand -20.4207 25.9074
rfingers 7.12502
rthumb 5.93366 -3.98956
lclavicle 1.88845e-014 -2.62396e-014
lhumerus -53.6729 0.649346 88.6057
lradius 116.703
lwrist 14.968
lhand -15.7454 -12.8908
lfingers 7.12502
lthumb 10.4457 16.8297
rfemur -27.1046 -6.55756 14.529
rtibia 89.8786
rfoot -2.18347 0.784453
rtoes -7.85545
lfemur 1.95689 -4.94315 -30.8025
ltibia 36.3212
lfoot -25.5168 3.51506
ltoes -2.2989
40
root 12.0963 17.3706 13.4092 -176.903 -46.0333 173.84
lowerback 14.5344 -3.1952 -3.97369
upperback 2.66975 -5.2338 -2.41231
thorax -5.17676 -2.63118 0.675912
lowerneck -8.25332 2.66467 -6.13039
upperneck 0.109007 4.03935 -0.0585644
head 1.30764 1.95817 1.16253
rclavicle 6.08281e-014 -1.19271e-014
rhumerus -64.3282 8.29679 -100.463
rradius 87.5437
rwrist -8.49416
rhand -20.2487 25.9598
rfingers 7.12502
rthumb 6.09968 -3.93239
lclavicle 6.08281e-014 -1.19271e-014
lhumerus -53.4468 0.405563 88.9595
lradius 117.293
lwrist 14.7431
lhand -16.2329 -13.1638
lfingers 7.12502
lthumb 9.97543 16.5798
rfemur -28.4632 -6.21902 15.7475
rtibia 87.1224
rfoot -2.1477 0.403875
rtoes -7.9598
lfemur 3.36516 -5.40962 -30.0797
ltibia 34.6171
lfoot -23.1131 3.49868
ltoes -1.64692
41
root 11.8209 17.5254 13.1196 -176.927 -46.1201 174.6
lowerback 13.7839 -3.54064 -3.39537
upperback 2.5233 -5.52944 -2.22451
thorax -4.94494 -2.77693 0.555679
lowerneck -8.10581 2.80362 -6.37329
upperneck 0.241073 4.24024 0.186594
head 1.30947 2.06383 1.28771
rclavicle 6.7885e-014 3.73715e-014
rhumerus -65.2087 8.85807 -100.443
rradius 87.9315
rwrist -7.99437
rhand -20.0268 26.2307
rfingers 7.12502
rthumb 6.31399 -3.65519
lclavicle 6.7885e-014 3.73715e-014
lhumerus -53.1062 0.0196443 89.3083
lradius 117.881
lwrist 14.5334
lhand -16.485 -13.2699
lfingers 7.12502
lthumb 9.73229 16.4853
rfemur -29.4673 -5.99764 16.7582
rtibia 83.9726
rfoot -2.01241 0.301905
rtoes -8.59418
lfemur 4.68494 -5.78318 -29.4283
ltibia 32.9559
lfoot -20.1816 3.57339
ltoes -1.22165
42
root 11.5451 17.6769 12.8261 -176.759 -46.2562 175.092
lowerback 13.0302 -3.87296 -3.06129
upperback 2.3665 -5.85718 -2.05789
thorax -4.70236 -2.93636 0.547808
lowerneck -8.02994 2.95506 -6.48966
upperneck 0.456564 4.45455 0.357103
head 1.35302 2.17277 1.37108
rclavicle 8.0806e-014 2.18663e-014
rhumerus -66.1157 9.40128 -100.39
rradius 88.2312
rwrist -7.30418
rhand -19.8388 26.685
rfingers 7.12502
rthumb 6.49546 -3.1954
lclavicle 8.0806e-014 2.18663e-014
lhumerus -52.7749 -0.541645 89.5984
lradius 118.556
lwrist 14.4718
lhand -16.4472 -13.2546
lfingers 7.12502
lthumb 9.76875 16.4989
rfemur -30.2516 -5.81058 17.5174
rtibia 80.5674
rfoot -1.75145 0.354781
rtoes -9.31174
lfemur 5.87758 -6.09901 -28.9437
ltibia 31.3826
lfoot -16.8069 3.7656
ltoes -1.10334
